<svg width="1014" height="504" viewBox="0 0 1014 504" fill="none" xmlns="http://www.w3.org/2000/svg">
<g clip-path="url(#clip0_613_2610)">
<rect width="1014" height="504" rx="24" fill="#1F4ECF"/>
<g opacity="0.05">
<path d="M379.56 252.357V252.447H379.65L415.131 272.633V314.075L379.65 334.351H379.56L343.633 354.804L307.706 334.351L343.633 313.808L379.56 293.353L343.633 272.9L307.706 293.353V252.357L343.633 231.902L379.56 211.449L343.633 190.996L307.706 211.449V170.453L343.633 150L379.65 170.453L415.131 190.729V232.171L379.56 252.357Z" fill="white"/>
<path d="M274 312.563L307.706 293.354V334.352L274 353.561V312.563Z" fill="#F5F7FA"/>
<path d="M307.706 211.449V252.447L274 271.566V230.57L307.706 211.449Z" fill="#F5F7FA"/>
<path d="M457.636 200.547H497.112C503.642 200.547 509.084 201.19 513.437 202.476C517.889 203.663 521.5 205.395 524.271 207.67C527.041 209.946 529.02 212.716 530.207 215.981C531.394 219.147 531.988 222.66 531.988 226.518C531.988 231.465 531.048 235.472 529.168 238.539C527.387 241.507 525.062 243.832 522.193 245.514C519.423 247.196 516.356 248.334 512.992 248.928C509.727 249.521 506.561 249.818 503.494 249.818V251.896C505.868 251.896 508.391 251.995 511.062 252.193C513.734 252.292 516.405 252.638 519.076 253.231C521.847 253.726 524.469 254.518 526.942 255.606C529.415 256.694 531.592 258.228 533.472 260.207C535.451 262.086 536.984 264.51 538.073 267.479C539.26 270.348 539.854 273.91 539.854 278.164C539.854 282.418 539.062 286.178 537.479 289.443C535.896 292.708 533.67 295.478 530.801 297.754C528.03 299.93 524.666 301.612 520.709 302.8C516.751 303.888 512.349 304.432 507.501 304.432H457.636V200.547ZM494.738 241.953C498.794 241.953 502.257 241.161 505.126 239.578C508.094 237.995 509.578 235.076 509.578 230.822C509.578 228.546 509.133 226.667 508.243 225.182C507.451 223.698 506.363 222.561 504.978 221.769C503.692 220.978 502.158 220.433 500.377 220.137C498.596 219.84 496.716 219.691 494.738 219.691H480.045V241.953H494.738ZM480.045 261.097V285.288H499.783C502.158 285.288 504.384 285.139 506.462 284.842C508.539 284.546 510.37 283.952 511.953 283.061C513.635 282.171 514.921 280.984 515.811 279.5C516.801 277.917 517.296 275.888 517.296 273.415C517.296 270.744 516.751 268.616 515.663 267.033C514.674 265.45 513.289 264.214 511.508 263.323C509.826 262.433 507.896 261.839 505.72 261.542C503.642 261.246 501.465 261.097 499.19 261.097H480.045ZM545.82 200.547H568.378V217.02H545.82V200.547ZM545.82 230.228H568.378V304.432H545.82V230.228ZM657.544 304.432H634.986V300.277C634.986 297.111 635.332 294.34 636.025 291.966C636.717 289.591 637.36 287.563 637.954 285.881L636.025 284.694C634.739 288.948 633.106 292.461 631.127 295.231C629.247 297.902 627.12 300.029 624.746 301.612C622.371 303.195 619.848 304.284 617.177 304.877C614.506 305.57 611.735 305.916 608.866 305.916C603.128 305.916 598.131 304.976 593.877 303.096C589.623 301.118 586.061 298.446 583.192 295.082C580.322 291.62 578.146 287.514 576.662 282.765C575.277 278.016 574.584 272.871 574.584 267.33C574.584 261.79 575.277 256.645 576.662 251.896C578.146 247.147 580.322 243.09 583.192 239.726C586.061 236.264 589.623 233.592 593.877 231.712C598.131 229.734 603.128 228.744 608.866 228.744C611.735 228.744 614.506 229.091 617.177 229.783C619.848 230.377 622.371 231.465 624.746 233.048C627.12 234.631 629.247 236.808 631.127 239.578C633.106 242.348 634.739 245.811 636.025 249.967L637.954 248.779C637.36 247.097 636.717 245.069 636.025 242.695C635.332 240.221 634.986 237.401 634.986 234.235V193.126H657.395L657.544 304.432ZM634.986 265.401C634.986 263.62 634.689 261.691 634.095 259.613C633.502 257.436 632.463 255.458 630.979 253.677C629.495 251.797 627.467 250.263 624.894 249.076C622.421 247.79 619.255 247.147 615.396 247.147C613.219 247.147 611.043 247.493 608.866 248.186C606.689 248.779 604.711 249.868 602.93 251.451C601.248 253.034 599.863 255.111 598.774 257.684C597.686 260.256 597.142 263.472 597.142 267.33C597.142 271.189 597.686 274.454 598.774 277.125C599.863 279.698 601.248 281.775 602.93 283.358C604.711 284.842 606.689 285.931 608.866 286.623C611.043 287.217 613.219 287.514 615.396 287.514C619.255 287.514 622.421 286.92 624.894 285.733C627.467 284.447 629.495 282.913 630.979 281.132C632.463 279.351 633.502 277.422 634.095 275.344C634.689 273.168 634.986 271.189 634.986 269.408V265.401ZM663.338 200.547H735.019V219.691L691.239 285.288H736.206V304.432H664.228V285.288L708.009 219.691H663.338V200.547Z" fill="white"/>
</g>
<g opacity="0.03">
<mask id="mask0_613_2610" style="mask-type:luminance" maskUnits="userSpaceOnUse" x="61" y="-201" width="953" height="951">
<path fill-rule="evenodd" clip-rule="evenodd" d="M61.4014 -200.77H1014V749.345H61.4014V-200.77Z" fill="white"/>
</mask>
<g mask="url(#mask0_613_2610)">
<path fill-rule="evenodd" clip-rule="evenodd" d="M1012.26 194.331C1012.56 187.555 1009.41 181.194 1003.84 177.32L467.823 -195.514C463.504 -198.521 458.266 -199.668 453.079 -198.748C447.894 -197.825 443.377 -194.945 440.367 -190.635L66.6632 343.871C64.5199 346.937 63.2997 350.526 63.1372 354.244C62.8416 361.022 65.9926 367.38 71.563 371.259L607.575 744.092C611.899 747.098 617.131 748.246 622.322 747.326C627.506 746.4 632.024 743.525 635.035 739.212L1008.74 204.708C1010.88 201.641 1012.1 198.05 1012.26 194.331ZM61.4222 354.17C61.6006 350.125 62.9274 346.227 65.2582 342.893L438.958 -191.614C442.233 -196.298 447.141 -199.43 452.78 -200.433C458.418 -201.434 464.109 -200.186 468.807 -196.919L1004.82 175.916C1010.88 180.13 1014.3 187.042 1013.98 194.408C1013.8 198.452 1012.48 202.35 1010.14 205.687L636.442 740.19C633.168 744.876 628.262 748.005 622.623 749.007C616.986 750.012 611.294 748.761 606.594 745.493L70.5844 372.659C64.5272 368.448 61.1001 361.535 61.4222 354.17Z" fill="#DADADA"/>
</g>
<path fill-rule="evenodd" clip-rule="evenodd" d="M987.364 188.94C987.651 182.439 984.656 176.299 979.36 172.515L461.536 -197.509C457.368 -200.491 452.284 -201.673 447.222 -200.841C442.16 -200.007 437.729 -197.257 434.74 -193.099L63.8526 323.265C61.6768 326.298 60.44 329.859 60.2782 333.565C59.9939 340.068 62.9863 346.209 68.2844 349.989L586.107 720.019C594.719 726.166 606.737 724.191 612.901 715.608L983.788 199.241C985.967 196.21 987.203 192.646 987.364 188.94ZM58.5649 333.488C58.7396 329.452 60.0875 325.571 62.4592 322.269L433.348 -194.094C436.601 -198.625 441.429 -201.619 446.941 -202.528C452.454 -203.435 457.992 -202.147 462.535 -198.901L980.357 171.125C986.13 175.247 989.388 181.933 989.08 189.014C988.9 193.054 987.557 196.937 985.183 200.237L614.294 716.601C607.58 725.952 594.482 728.108 585.107 721.409L67.284 351.382C61.5156 347.26 58.2542 340.572 58.5649 333.488Z" fill="#DADADA"/>
<path fill-rule="evenodd" clip-rule="evenodd" d="M962.468 183.547C962.738 177.323 959.901 171.401 954.882 167.709L455.248 -199.505C446.951 -205.603 435.229 -203.833 429.115 -195.561L61.0432 302.663C58.831 305.654 57.5761 309.193 57.4143 312.891C57.1421 319.115 59.9787 325.035 65.0016 328.725L564.631 695.944C568.654 698.897 573.583 700.112 578.52 699.368C583.458 698.625 587.808 696.004 590.768 691.998L958.841 193.772C961.053 190.782 962.308 187.246 962.468 183.547ZM55.7015 312.812C55.8784 308.774 57.2461 304.914 59.6608 301.649L427.735 -196.576C434.409 -205.608 447.207 -207.54 456.264 -200.883L955.898 166.332C961.383 170.364 964.478 176.829 964.18 183.623C964.006 187.661 962.638 191.521 960.223 194.789L592.149 693.013C588.915 697.387 584.169 700.246 578.778 701.058C573.39 701.872 568.006 700.544 563.619 697.321L63.9852 330.104C58.5026 326.072 55.4044 319.61 55.7015 312.812Z" fill="#DADADA"/>
<path fill-rule="evenodd" clip-rule="evenodd" d="M937.578 178.154C937.836 172.202 935.153 166.503 930.403 162.905L448.959 -201.502C445.089 -204.43 440.311 -205.68 435.5 -205.023C430.692 -204.367 426.425 -201.88 423.492 -198.022L58.2274 282.062C55.9813 285.018 54.7074 288.526 54.5464 292.215C54.2863 298.165 56.9671 303.864 61.7194 307.462L543.167 671.868C551.148 677.906 562.572 676.35 568.632 668.391L933.897 188.307C936.143 185.353 937.415 181.843 937.578 178.154ZM52.8349 292.138C53.0095 288.1 54.4036 284.257 56.8629 281.027L422.124 -199.056C425.337 -203.278 430.005 -205.998 435.268 -206.719C440.531 -207.437 445.76 -206.068 449.996 -202.864L931.438 161.543C936.64 165.479 939.573 171.716 939.29 178.229C939.111 182.267 937.723 186.11 935.262 189.342L569.999 669.424C563.367 678.135 550.865 679.847 542.128 673.231L60.6854 308.823C55.484 304.886 52.5491 298.653 52.8349 292.138Z" fill="#DADADA"/>
<path fill-rule="evenodd" clip-rule="evenodd" d="M912.686 172.763C912.934 167.081 910.406 161.599 905.921 158.099L442.669 -203.499C438.952 -206.399 434.325 -207.684 429.641 -207.114C424.953 -206.545 420.774 -204.19 417.866 -200.484L55.4146 261.459C53.1291 264.369 51.8378 267.851 51.6768 271.534C51.4281 277.215 53.9585 282.697 58.4416 286.198L521.694 647.796C525.414 650.695 530.037 651.979 534.724 651.41C539.409 650.842 543.59 648.486 546.5 644.78L908.949 182.838C911.236 179.929 912.525 176.443 912.686 172.763ZM49.9627 271.457C50.1412 267.416 51.5572 263.598 54.0634 260.4L416.515 -201.539C419.705 -205.604 424.294 -208.188 429.431 -208.811C434.571 -209.437 439.646 -208.028 443.727 -204.845L906.976 156.752C911.897 160.591 914.672 166.605 914.399 172.837C914.223 176.877 912.805 180.7 910.303 183.895L547.85 645.834C544.659 649.904 540.07 652.487 534.932 653.107C529.792 653.736 524.715 652.326 520.64 649.143L57.3838 287.545C52.4652 283.705 49.6913 277.691 49.9627 271.457Z" fill="#DADADA"/>
<path fill-rule="evenodd" clip-rule="evenodd" d="M887.803 167.37C888.038 161.957 885.662 156.697 881.442 153.296L436.378 -205.494C429.016 -211.429 418.187 -210.286 412.239 -202.945L52.5981 240.859C50.2779 243.722 48.9616 247.181 48.8006 250.856C48.5632 256.271 50.9432 261.53 55.1617 264.932L500.225 623.719C503.793 626.598 508.268 627.914 512.824 627.434C517.386 626.949 521.484 624.727 524.364 621.172L884.005 177.371C886.329 174.504 887.644 171.044 887.803 167.37ZM47.0883 250.782C47.2637 246.739 48.7099 242.936 51.266 239.782L410.904 -204.02C417.446 -212.094 429.357 -213.352 437.455 -206.826L882.522 151.966C887.161 155.704 889.775 161.492 889.517 167.444C889.34 171.486 887.895 175.29 885.34 178.448L525.699 622.245C522.531 626.159 518.02 628.604 513.008 629.133C507.992 629.665 503.07 628.216 499.149 625.051L54.0845 266.262C49.4425 262.522 46.8275 256.734 47.0883 250.782Z" fill="#DADADA"/>
<path fill-rule="evenodd" clip-rule="evenodd" d="M862.922 161.976C863.153 156.756 860.978 151.838 856.962 148.488L430.089 -207.493C426.671 -210.34 422.351 -211.692 417.915 -211.298C413.48 -210.904 409.467 -208.81 406.613 -205.405L49.7847 220.256C47.4169 223.08 46.081 226.509 45.9215 230.176C45.6939 235.399 47.8697 240.319 51.8842 243.667L478.759 599.649C485.811 605.53 496.34 604.593 502.233 597.56L859.059 171.901C861.426 169.078 862.763 165.646 862.922 161.976ZM44.21 230.1C44.3846 226.057 45.8581 222.272 48.4679 219.156L405.295 -206.502C408.445 -210.26 412.871 -212.568 417.763 -213.001C422.653 -213.436 427.422 -211.945 431.188 -208.804L858.061 147.174C862.491 150.869 864.887 156.29 864.637 162.053C864.461 166.102 862.987 169.884 860.374 172.996L503.549 598.658C497.048 606.413 485.434 607.444 477.656 600.962L50.7836 244.983C46.3526 241.287 43.956 235.864 44.21 230.1Z" fill="#DADADA"/>
<path fill-rule="evenodd" clip-rule="evenodd" d="M838.049 156.586C838.265 151.627 836.237 146.926 832.482 143.678L423.798 -209.489C420.533 -212.313 416.362 -213.699 412.051 -213.39C407.741 -213.083 403.812 -211.122 400.982 -207.866L46.9713 199.653C44.5566 202.432 43.1973 205.835 43.037 209.5C42.8201 214.457 44.8507 219.161 48.6043 222.407L457.287 575.577C460.555 578.398 464.726 579.782 469.036 579.476C473.342 579.171 477.272 577.209 480.102 573.953L834.114 166.432C836.528 163.656 837.891 160.25 838.049 156.586ZM41.323 209.426C41.4999 205.371 43.0066 201.606 45.6746 198.535L399.686 -208.986C402.815 -212.588 407.163 -214.758 411.929 -215.096C416.696 -215.437 421.31 -213.904 424.92 -210.783L833.602 142.385C837.759 145.977 839.999 151.18 839.763 156.661C839.584 160.713 838.081 164.479 835.413 167.556L481.397 575.071C478.271 578.675 473.923 580.844 469.158 581.185C464.391 581.521 459.776 579.992 456.168 576.868L47.4815 223.699C43.3272 220.108 41.0849 214.908 41.323 209.426Z" fill="#DADADA"/>
<path fill-rule="evenodd" clip-rule="evenodd" d="M813.18 151.194C813.386 146.501 811.497 142.01 807.999 138.871L417.504 -211.49C414.391 -214.285 410.371 -215.702 406.187 -215.481C402.004 -215.262 398.156 -213.431 395.355 -210.325L44.1542 179.054C41.7267 181.743 40.3038 185.214 40.1458 188.823C39.9425 193.515 41.831 198.007 45.3276 201.144L435.822 551.508C438.934 554.3 442.953 555.719 447.141 555.5C451.321 555.279 455.169 553.449 457.972 550.345L809.171 160.964C811.6 158.275 813.025 154.802 813.18 151.194ZM38.432 188.749C38.6089 184.744 40.1852 180.892 42.8797 177.911L394.08 -211.469C397.186 -214.913 401.456 -216.947 406.098 -217.191C410.74 -217.435 415.198 -215.861 418.653 -212.761L809.147 137.601C813.027 141.081 815.121 146.063 814.893 151.268C814.717 155.273 813.139 159.12 810.447 162.108L459.246 551.488C456.14 554.93 451.871 556.964 447.229 557.208C442.59 557.452 438.129 555.88 434.675 552.777L44.18 202.413C40.2994 198.935 38.2067 193.952 38.432 188.749Z" fill="#DADADA"/>
<path fill-rule="evenodd" clip-rule="evenodd" d="M788.32 145.801C788.513 141.369 786.763 137.091 783.518 134.061L411.213 -213.489C408.249 -216.258 404.379 -217.709 400.323 -217.575C396.265 -217.441 392.5 -215.74 389.724 -212.782L41.3372 158.455C38.859 161.095 37.4074 164.537 37.2494 168.147C37.0566 172.579 38.806 176.857 42.0471 179.886L414.354 527.435C420.472 533.15 430.114 532.834 435.842 526.732L784.232 155.493C786.71 152.853 788.16 149.411 788.32 145.801ZM35.5358 168.073C35.7127 164.055 37.3283 160.224 40.084 157.286L388.473 -213.951C391.56 -217.242 395.747 -219.136 400.263 -219.284C404.781 -219.432 409.085 -217.819 412.385 -214.737L784.69 132.814C788.301 136.184 790.247 140.944 790.033 145.876C789.856 149.892 788.242 153.722 785.484 156.664L437.093 527.901C430.719 534.693 419.99 535.044 413.182 528.685L40.877 181.134C37.2678 177.765 35.3218 173.001 35.5358 168.073Z" fill="#DADADA"/>
<path fill-rule="evenodd" clip-rule="evenodd" d="M763.462 140.408C763.643 136.237 762.031 132.169 759.036 129.253L404.922 -215.492C399.109 -221.149 389.765 -221.037 384.093 -215.241L38.5175 137.855C35.9849 140.439 34.5016 143.857 34.3451 147.465C34.1614 151.642 35.7762 155.707 38.7723 158.624L392.885 503.37C398.7 509.025 408.041 508.909 413.711 503.117L759.288 150.023C761.82 147.435 763.303 144.019 763.462 140.408ZM32.6325 147.389C32.8071 143.361 34.4636 139.548 37.2903 136.659L382.867 -216.438C389.2 -222.907 399.629 -223.032 406.117 -216.714L760.233 128.028C763.576 131.283 765.379 135.824 765.175 140.485C765 144.515 763.345 148.329 760.515 151.218L414.938 504.312C408.607 510.782 398.177 510.909 391.687 504.591L37.5761 159.846C34.2307 156.591 32.4291 152.05 32.6325 147.389Z" fill="#DADADA"/>
<path fill-rule="evenodd" clip-rule="evenodd" d="M738.614 135.017C738.787 131.096 737.304 127.244 734.554 124.444L398.628 -217.493C393.124 -223.094 384.079 -223.187 378.463 -217.701L35.6998 117.253C33.1089 119.786 31.5924 123.172 31.4329 126.789C31.2628 130.709 32.7461 134.562 35.4964 137.364L371.417 479.303C376.924 484.904 385.967 484.994 391.585 479.503L734.348 144.553C736.94 142.02 738.456 138.632 738.614 135.017ZM29.7195 126.714C29.8972 122.664 31.5975 118.871 34.4998 116.032L377.261 -218.923C383.554 -225.07 393.686 -224.964 399.852 -218.69L735.778 123.245C738.862 126.382 740.519 130.7 740.328 135.091C740.15 139.143 738.451 142.935 735.548 145.774L392.786 480.73C386.498 486.876 376.361 486.772 370.196 480.499L34.27 138.564C31.1885 135.424 29.5283 131.104 29.7195 126.714Z" fill="#DADADA"/>
<path fill-rule="evenodd" clip-rule="evenodd" d="M713.773 129.626C713.935 125.902 712.621 122.351 710.067 119.627L392.331 -219.496C389.818 -222.181 386.402 -223.731 382.72 -223.855C379.035 -223.98 375.523 -222.666 372.83 -220.158L32.8814 96.6551C30.224 99.131 28.6749 102.488 28.5162 106.111C28.3536 109.834 29.6676 113.385 32.2184 116.109L349.955 455.232C355.15 460.776 363.898 461.07 369.458 455.893L709.409 139.08C712.066 136.605 713.613 133.247 713.773 129.626ZM26.8026 106.033C26.981 101.959 28.7221 98.1899 31.7061 95.4078L371.659 -221.407C374.687 -224.23 378.634 -225.705 382.779 -225.564C386.919 -225.424 390.757 -223.683 393.589 -220.663L711.321 118.46C714.192 121.522 715.67 125.515 715.488 129.701C715.31 133.774 713.566 137.55 710.578 140.329L370.628 457.145C364.382 462.965 354.543 462.635 348.701 456.403L30.9667 117.276C28.0999 114.212 26.6181 110.223 26.8026 106.033Z" fill="#DADADA"/>
<path fill-rule="evenodd" clip-rule="evenodd" d="M688.94 124.234C689.093 120.757 687.9 117.416 685.584 114.815L386.039 -221.5C381.15 -226.988 372.697 -227.489 367.194 -222.617L30.056 76.0587C27.3321 78.4704 25.7452 81.7976 25.5872 85.4303C25.436 88.9034 26.6275 92.251 28.9439 94.8502L328.489 431.166C333.378 436.656 341.828 437.157 347.335 432.28L684.47 133.607C687.195 131.195 688.783 127.865 688.94 124.234ZM23.8728 85.3558C24.0528 81.2605 25.8453 77.5023 28.92 74.7799L366.056 -223.895C372.264 -229.394 381.804 -228.829 387.321 -222.637L686.868 113.681C689.48 116.613 690.828 120.387 690.655 124.309C690.476 128.408 688.683 132.163 685.612 134.887L348.473 433.565C342.262 439.059 332.723 438.497 327.204 432.302L27.6612 95.99C25.0477 93.0536 23.702 89.278 23.8728 85.3558Z" fill="#DADADA"/>
<path fill-rule="evenodd" clip-rule="evenodd" d="M664.12 118.844C664.262 115.615 663.188 112.473 661.102 109.999L379.745 -223.506C377.528 -226.137 374.412 -227.75 370.979 -228.044C367.543 -228.339 364.198 -227.285 361.561 -225.071L27.2347 55.4638C24.479 57.7749 22.8098 61.1604 22.6518 64.7522C22.5111 67.9811 23.5809 71.1208 25.669 73.5976L307.025 407.104C311.605 412.533 319.765 413.235 325.21 408.666L659.536 128.136C662.292 125.823 663.963 122.435 664.12 118.844ZM20.9371 64.6778C21.1155 60.6059 23.0085 56.7713 26.1286 54.154L360.455 -226.381C363.446 -228.887 367.233 -230.084 371.125 -229.749C375.017 -229.414 378.544 -227.587 381.058 -224.608L662.412 108.899C664.778 111.703 665.992 115.26 665.833 118.917C665.656 122.987 663.762 126.824 660.64 129.445L326.313 409.976C320.145 415.152 310.902 414.356 305.713 408.204L24.3588 74.6957C21.9925 71.8932 20.7775 68.3354 20.9371 64.6778Z" fill="#DADADA"/>
<path fill-rule="evenodd" clip-rule="evenodd" d="M639.308 113.452C639.438 110.463 638.482 107.527 636.617 105.182L373.45 -225.513C371.377 -228.116 368.414 -229.76 365.102 -230.14C361.793 -230.521 358.533 -229.593 355.926 -227.529L24.4093 34.8651C21.5765 37.1075 19.8618 40.4626 19.7031 44.0742C19.5745 47.0589 20.5294 49.9953 22.3945 52.3435L285.558 383.04C289.836 388.415 297.698 389.319 303.087 385.053L634.599 122.663C637.434 120.42 639.151 117.061 639.308 113.452ZM17.9891 43.9974C18.166 39.893 20.1195 36.0774 23.3454 33.5243L354.857 -228.868C357.826 -231.217 361.533 -232.273 365.299 -231.839C369.065 -231.406 372.436 -229.537 374.794 -226.575L637.959 104.12C640.081 106.787 641.17 110.129 641.021 113.528C640.841 117.633 638.893 121.451 635.667 124.001L304.149 386.395C298.029 391.244 289.082 390.216 284.217 384.104L21.0502 53.4098C18.9296 50.7373 17.8409 47.3957 17.9891 43.9974Z" fill="#DADADA"/>
<path fill-rule="evenodd" clip-rule="evenodd" d="M614.508 108.065C614.628 105.312 613.784 102.578 612.131 100.364L367.154 -227.523C363.181 -232.838 355.614 -233.943 350.282 -229.983L21.5867 14.2695C18.6662 16.437 16.9001 19.7627 16.7421 23.3908C16.6234 26.1427 17.4687 28.8749 19.1198 31.0931L264.098 358.982C268.069 364.296 275.637 365.399 280.965 361.44L609.668 117.189C612.587 115.021 614.348 111.696 614.508 108.065ZM15.028 23.317C15.2087 19.1695 17.2273 15.3735 20.5606 12.8938L349.258 -231.354C355.346 -235.878 363.992 -234.617 368.53 -228.544L613.504 99.3434C615.392 101.871 616.361 104.995 616.221 108.14C616.041 112.286 614.024 116.084 610.69 118.563L281.992 362.811C275.903 367.334 267.259 366.071 262.721 360.003L17.7444 32.1147C15.8566 29.5843 14.8912 26.4605 15.028 23.317Z" fill="#DADADA"/>
<path fill-rule="evenodd" clip-rule="evenodd" d="M589.721 102.677C589.831 100.119 589.115 97.6526 587.646 95.5448L360.859 -229.534C357.191 -234.792 349.917 -236.095 344.642 -232.439L18.7551 -6.32751C15.7469 -4.2394 13.9294 -0.946945 13.7699 2.70915C13.6595 5.2675 14.3777 7.7321 15.8474 9.83836L242.632 334.921C246.3 340.182 253.573 341.484 258.848 337.824L584.737 111.715C587.745 109.629 589.56 106.332 589.721 102.677ZM12.0576 2.63332C12.2398 -1.55879 14.3256 -5.33885 17.7784 -7.73315L343.663 -233.842C349.713 -238.037 358.058 -236.544 362.265 -230.511L589.053 94.5678C590.738 96.9856 591.563 99.8138 591.433 102.75C591.251 106.945 589.167 110.724 585.719 113.12L259.827 339.231C253.779 343.426 245.433 341.932 241.226 335.899L14.4398 10.8187C12.7524 8.40172 11.9291 5.57271 12.0576 2.63332Z" fill="#DADADA"/>
<path fill-rule="evenodd" clip-rule="evenodd" d="M564.95 97.2898C565.052 94.959 564.435 92.6894 563.159 90.723L354.562 -231.548C351.196 -236.746 344.216 -238.248 339.001 -234.893L15.9257 -26.9259C12.8653 -24.9527 10.9413 -21.6065 10.784 -17.9716C10.6827 -15.6423 11.3026 -13.3743 12.5765 -11.4079L221.171 310.867C224.537 316.063 231.516 317.564 236.732 314.207L559.809 106.239C562.867 104.269 564.789 100.924 564.95 97.2898ZM9.07102 -18.0475C9.25398 -22.2373 11.4699 -26.0922 14.9967 -28.361L338.071 -236.33C344.078 -240.198 352.124 -238.467 356.004 -232.475L564.599 89.7952C566.067 92.0609 566.78 94.6783 566.663 97.3636C566.481 101.551 564.266 105.408 560.736 107.676L237.662 315.645C231.655 319.511 223.609 317.783 219.731 311.792L11.1319 -10.4767C9.66828 -12.7455 8.95309 -15.3613 9.07102 -18.0475Z" fill="#DADADA"/>
<path fill-rule="evenodd" clip-rule="evenodd" d="M540.189 91.9003C540.282 89.7963 539.756 87.7195 538.673 85.899L348.268 -233.563C345.201 -238.705 338.511 -240.403 333.356 -237.348L13.095 -47.5203C9.92884 -45.6446 7.94127 -42.3295 7.781 -38.656C7.68876 -36.549 8.21495 -34.4737 9.29983 -32.651L199.706 286.81C202.773 291.953 209.46 293.651 214.614 290.593L534.879 100.766C538.045 98.8897 540.029 95.5761 540.189 91.9003ZM6.06885 -38.7308C6.25483 -42.9841 8.55236 -46.8202 12.2168 -48.9899L332.478 -238.819C338.449 -242.356 346.192 -240.389 349.738 -234.436L540.145 85.0229C541.403 87.1329 542.009 89.5348 541.904 91.9783C541.718 96.2308 539.419 100.065 535.755 102.239L215.491 292.067C209.524 295.602 201.779 293.637 198.232 287.685L7.82507 -31.777C6.56933 -33.8847 5.96225 -36.2919 6.06885 -38.7308Z" fill="#DADADA"/>
<path fill-rule="evenodd" clip-rule="evenodd" d="M515.45 86.5176C515.532 84.6275 515.097 82.7428 514.184 81.0712L341.968 -235.581C339.203 -240.666 332.807 -242.56 327.706 -239.803L10.2576 -68.1186C6.97947 -66.3443 4.92538 -63.0647 4.76283 -59.3428C4.67967 -57.452 5.11589 -55.568 6.02613 -53.8949L178.244 262.757C181.01 267.841 187.406 269.736 192.506 266.979L509.955 95.2911C513.234 93.5183 515.288 90.2402 515.45 86.5176ZM3.0498 -59.4158C3.23578 -63.679 5.68376 -67.5876 9.44116 -69.619L326.891 -241.306C332.82 -244.512 340.262 -242.309 343.478 -236.395L515.694 80.2558C516.753 82.2041 517.258 84.3912 517.165 86.5927C516.976 90.8544 514.527 94.7645 510.775 96.7974L193.322 268.484C187.393 271.69 179.953 269.487 176.735 263.571L4.52101 -53.0789C3.46183 -55.0271 2.95303 -57.2173 3.0498 -59.4158Z" fill="#DADADA"/>
<mask id="mask1_613_2610" style="mask-type:luminance" maskUnits="userSpaceOnUse" x="0" y="-245" width="493" height="492">
<path fill-rule="evenodd" clip-rule="evenodd" d="M0 -245H492.456V246.106H0V-245Z" fill="white"/>
</mask>
<g mask="url(#mask1_613_2610)">
<path fill-rule="evenodd" clip-rule="evenodd" d="M490.731 81.134C490.803 79.4541 490.446 77.7636 489.697 76.2426L335.671 -237.6C333.207 -242.627 327.099 -244.717 322.059 -242.258L7.4196 -88.711C4.06818 -87.0757 1.88783 -83.7485 1.72529 -80.0289C1.65195 -78.3475 2.00653 -76.6556 2.75423 -75.1337L156.78 238.709C159.249 243.734 165.353 245.824 170.394 243.364L485.033 89.8206C488.382 88.1838 490.567 84.8558 490.731 81.134ZM0.0107622 -80.1044C0.200522 -84.4515 2.75208 -88.3397 6.6637 -90.2478L321.303 -243.795C327.192 -246.667 334.331 -244.227 337.214 -238.353L491.243 75.4897C492.113 77.2671 492.53 79.244 492.445 81.209C492.254 85.5568 489.705 89.4457 485.787 91.3547L171.149 244.899C165.258 247.776 158.122 245.335 155.24 239.46L1.21056 -74.3844C0.338873 -76.1587 -0.0754236 -78.1387 0.0107622 -80.1044Z" fill="#DADADA"/>
</g>
</g>
<g filter="url(#filter0_f_613_2610)">
<circle cx="120.5" cy="382.5" r="219.5" fill="#277DFF"/>
</g>
<g filter="url(#filter1_f_613_2610)">
<circle cx="956.5" cy="106.5" r="219.5" fill="#277DFF"/>
</g>
</g>
<defs>
<filter id="filter0_f_613_2610" x="-399" y="-137" width="1039" height="1039" filterUnits="userSpaceOnUse" color-interpolation-filters="sRGB">
<feFlood flood-opacity="0" result="BackgroundImageFix"/>
<feBlend mode="normal" in="SourceGraphic" in2="BackgroundImageFix" result="shape"/>
<feGaussianBlur stdDeviation="150" result="effect1_foregroundBlur_613_2610"/>
</filter>
<filter id="filter1_f_613_2610" x="437" y="-413" width="1039" height="1039" filterUnits="userSpaceOnUse" color-interpolation-filters="sRGB">
<feFlood flood-opacity="0" result="BackgroundImageFix"/>
<feBlend mode="normal" in="SourceGraphic" in2="BackgroundImageFix" result="shape"/>
<feGaussianBlur stdDeviation="150" result="effect1_foregroundBlur_613_2610"/>
</filter>
<clipPath id="clip0_613_2610">
<rect width="1014" height="504" rx="24" fill="white"/>
</clipPath>
</defs>
</svg>
