<svg width="339" height="149" viewBox="0 0 339 149" fill="none" xmlns="http://www.w3.org/2000/svg">
<path d="M76.6277 74.3022V74.3672H76.6929L102.449 89.0207V119.104L76.6929 133.822H76.6277L50.5478 148.669L24.4677 133.822L50.5478 118.91L76.6277 104.061L50.5478 89.2143L24.4677 104.061V74.3022L50.5478 59.4534L76.6277 44.6064L50.5478 29.7591L24.4677 44.6064V14.847L50.5478 0L76.6929 14.847L102.449 29.5656V59.6487L76.6277 74.3022Z" fill="white"/>
<path d="M0 118.005L24.4676 104.061V133.822L0 147.766V118.005Z" fill="#F5F7FA"/>
<path d="M24.4676 44.6064V74.3673L0 88.2461V58.487L24.4676 44.6064Z" fill="#F5F7FA"/>
<path d="M133.303 36.198H161.959C166.699 36.198 170.65 36.6648 173.81 37.5984C177.042 38.4603 179.663 39.7172 181.674 41.369C183.685 43.0209 185.121 45.0319 185.983 47.4019C186.845 49.7002 187.276 52.2498 187.276 55.0508C187.276 58.6418 186.594 61.5506 185.229 63.777C183.936 65.9316 182.249 67.6194 180.166 68.8403C178.155 70.0613 175.928 70.8872 173.486 71.3181C171.116 71.7491 168.818 71.9645 166.592 71.9645V73.4727C168.315 73.4727 170.147 73.5446 172.086 73.6882C174.025 73.76 175.964 74.0114 177.903 74.4423C179.914 74.8014 181.818 75.376 183.613 76.166C185.409 76.956 186.989 78.0692 188.353 79.5057C189.79 80.8702 190.903 82.6298 191.693 84.7845C192.555 86.8672 192.986 89.4528 192.986 92.5411C192.986 95.6293 192.411 98.3585 191.262 100.729C190.113 103.099 188.497 105.11 186.414 106.761C184.403 108.342 181.961 109.562 179.088 110.424C176.216 111.214 173.02 111.609 169.5 111.609H133.303V36.198ZM160.236 66.2548C163.18 66.2548 165.694 65.6802 167.777 64.5311C169.931 63.382 171.009 61.2633 171.009 58.175C171.009 56.5231 170.685 55.1585 170.039 54.0812C169.465 53.0039 168.675 52.178 167.669 51.6034C166.735 51.0289 165.622 50.6339 164.329 50.4184C163.037 50.2029 161.672 50.0952 160.236 50.0952H149.57V66.2548H160.236ZM149.57 80.152V97.7121H163.898C165.622 97.7121 167.238 97.6044 168.746 97.3889C170.255 97.1735 171.583 96.7426 172.732 96.0962C173.953 95.4498 174.887 94.5879 175.533 93.5106C176.252 92.3615 176.611 90.8892 176.611 89.0937C176.611 87.1545 176.216 85.6104 175.426 84.4613C174.707 83.3121 173.702 82.4144 172.409 81.768C171.188 81.1216 169.788 80.6907 168.208 80.4752C166.699 80.2598 165.119 80.152 163.468 80.152H149.57ZM197.317 36.198H213.692V48.156H197.317V36.198ZM197.317 57.7441H213.692V111.609H197.317V57.7441ZM278.418 111.609H262.043V108.593C262.043 106.295 262.295 104.284 262.797 102.56C263.3 100.836 263.767 99.364 264.198 98.1431L262.797 97.2812C261.864 100.369 260.679 102.919 259.242 104.93C257.878 106.869 256.334 108.413 254.61 109.562C252.886 110.712 251.055 111.502 249.116 111.933C247.176 112.435 245.165 112.687 243.083 112.687C238.917 112.687 235.29 112.004 232.202 110.64C229.114 109.203 226.528 107.264 224.445 104.822C222.363 102.309 220.782 99.3281 219.705 95.8807C218.7 92.4333 218.197 88.6987 218.197 84.6767C218.197 80.6548 218.7 76.9201 219.705 73.4727C220.782 70.0254 222.363 67.0807 224.445 64.6388C226.528 62.1251 229.114 60.186 232.202 58.8214C235.29 57.385 238.917 56.6668 243.083 56.6668C245.165 56.6668 247.176 56.9181 249.116 57.4209C251.055 57.8518 252.886 58.6418 254.61 59.791C256.334 60.9401 257.878 62.5201 259.242 64.5311C260.679 66.5421 261.864 69.0558 262.797 72.0722L264.198 71.2104C263.767 69.9895 263.3 68.5171 262.797 66.7934C262.295 64.9979 262.043 62.9511 262.043 60.6528V30.8114H278.311L278.418 111.609ZM262.043 83.2762C262.043 81.9835 261.828 80.583 261.397 79.0747C260.966 77.4947 260.212 76.0583 259.135 74.7655C258.057 73.4009 256.585 72.2877 254.718 71.4259C252.922 70.4922 250.624 70.0254 247.823 70.0254C246.243 70.0254 244.663 70.2767 243.083 70.7795C241.503 71.2104 240.066 72.0004 238.773 73.1495C237.553 74.2987 236.547 75.8069 235.757 77.6742C234.967 79.5416 234.572 81.8757 234.572 84.6767C234.572 87.4777 234.967 89.8478 235.757 91.7869C236.547 93.6543 237.553 95.1625 238.773 96.3116C240.066 97.3889 241.503 98.179 243.083 98.6817C244.663 99.1126 246.243 99.3281 247.823 99.3281C250.624 99.3281 252.922 98.8972 254.718 98.0353C256.585 97.1017 258.057 95.9884 259.135 94.6957C260.212 93.4029 260.966 92.0024 261.397 90.4942C261.828 88.9141 262.043 87.4777 262.043 86.185V83.2762ZM282.624 36.198H334.658V50.0952L302.878 97.7121H335.52V111.609H283.271V97.7121L315.051 50.0952H282.624V36.198Z" fill="white"/>
</svg>
