<svg width="172" height="50" viewBox="0 0 172 50" fill="none" xmlns="http://www.w3.org/2000/svg">
<path d="M58.6789 24.9904V25.0096H58.6982L66.321 29.3464V38.2498L58.6982 42.6059H58.6789L50.9603 47L43.2417 42.6059L50.9603 38.1925L58.6789 33.7978L50.9603 29.4037L43.2417 33.7978V24.9904L50.9603 20.5958L58.6789 16.2016L50.9603 11.8075L43.2417 16.2016V7.39411L50.9603 3L58.6982 7.39411L66.321 11.7502V20.6536L58.6789 24.9904Z" fill="#1F4ECF"/>
<path d="M36.0002 37.9245L43.2416 33.7977V42.6057L36.0002 46.7326V37.9245Z" fill="#0633AE"/>
<path d="M43.2415 16.2016V25.0096L36.0001 29.1171V20.3097L43.2415 16.2016Z" fill="#0633AE"/>
<path d="M75.4523 13.5161H83.9334C85.3363 13.5161 86.5053 13.6543 87.4406 13.9306C88.3971 14.1857 89.1729 14.5577 89.7681 15.0465C90.3633 15.5354 90.7884 16.1306 91.0435 16.832C91.2985 17.5122 91.4261 18.2668 91.4261 19.0958C91.4261 20.1586 91.2241 21.0194 90.8203 21.6784C90.4377 22.316 89.9381 22.8156 89.3217 23.1769C88.7266 23.5383 88.0676 23.7827 87.3449 23.9102C86.6435 24.0378 85.9633 24.1015 85.3044 24.1015V24.5479C85.8145 24.5479 86.3565 24.5692 86.9304 24.6117C87.5044 24.6329 88.0783 24.7073 88.6522 24.8349C89.2473 24.9411 89.8106 25.1112 90.342 25.345C90.8734 25.5788 91.341 25.9083 91.7449 26.3334C92.17 26.7373 92.4995 27.258 92.7333 27.8957C92.9884 28.5121 93.1159 29.2773 93.1159 30.1913C93.1159 31.1053 92.9459 31.9131 92.6058 32.6145C92.2657 33.316 91.7874 33.9111 91.171 34.4C90.5758 34.8676 89.8531 35.229 89.0029 35.4841C88.1527 35.7179 87.2068 35.8348 86.1652 35.8348H75.4523V13.5161ZM83.4232 22.4117C84.2947 22.4117 85.0387 22.2417 85.6551 21.9016C86.2928 21.5615 86.6116 20.9344 86.6116 20.0204C86.6116 19.5315 86.516 19.1277 86.3247 18.8088C86.1546 18.49 85.9208 18.2455 85.6232 18.0755C85.3469 17.9055 85.0174 17.7885 84.6348 17.7248C84.2522 17.661 83.8483 17.6291 83.4232 17.6291H80.2667V22.4117H83.4232ZM80.2667 26.5247V31.7218H84.5073C85.0174 31.7218 85.4957 31.6899 85.942 31.6261C86.3884 31.5623 86.7817 31.4348 87.1217 31.2435C87.4831 31.0522 87.7594 30.7971 87.9507 30.4783C88.1633 30.1382 88.2696 29.7025 88.2696 29.1711C88.2696 28.5972 88.1527 28.1402 87.9188 27.8001C87.7063 27.46 87.4087 27.1943 87.0261 27.003C86.6647 26.8117 86.2503 26.6841 85.7826 26.6204C85.3363 26.5566 84.8686 26.5247 84.3797 26.5247H80.2667ZM94.3978 13.5161H99.2442V17.0552H94.3978V13.5161ZM94.3978 19.8929H99.2442V35.8348H94.3978V19.8929ZM118.4 35.8348H113.554V34.942C113.554 34.2618 113.628 33.6667 113.777 33.1565C113.926 32.6464 114.064 32.2107 114.192 31.8493L113.777 31.5942C113.501 32.5082 113.15 33.2628 112.725 33.858C112.321 34.4319 111.864 34.8889 111.354 35.229C110.844 35.5691 110.302 35.8029 109.728 35.9304C109.154 36.0792 108.559 36.1536 107.943 36.1536C106.71 36.1536 105.636 35.9517 104.722 35.5478C103.808 35.1227 103.043 34.5488 102.427 33.8261C101.81 33.0821 101.343 32.2 101.024 31.1797C100.726 30.1595 100.577 29.0542 100.577 27.8638C100.577 26.6735 100.726 25.5682 101.024 24.5479C101.343 23.5276 101.81 22.6561 102.427 21.9334C103.043 21.1895 103.808 20.6156 104.722 20.2117C105.636 19.7866 106.71 19.574 107.943 19.574C108.559 19.574 109.154 19.6484 109.728 19.7972C110.302 19.9248 110.844 20.1586 111.354 20.4987C111.864 20.8388 112.321 21.3064 112.725 21.9016C113.15 22.4967 113.501 23.2407 113.777 24.1334L114.192 23.8784C114.064 23.517 113.926 23.0813 113.777 22.5711C113.628 22.0397 113.554 21.4339 113.554 20.7537V11.9219H118.369L118.4 35.8348ZM113.554 27.4493C113.554 27.0667 113.49 26.6522 113.363 26.2059C113.235 25.7382 113.012 25.3131 112.693 24.9305C112.374 24.5267 111.939 24.1972 111.386 23.9421C110.855 23.6658 110.174 23.5276 109.345 23.5276C108.878 23.5276 108.41 23.602 107.943 23.7508C107.475 23.8784 107.05 24.1122 106.667 24.4523C106.306 24.7924 106.008 25.2387 105.774 25.7914C105.541 26.344 105.424 27.0348 105.424 27.8638C105.424 28.6928 105.541 29.3943 105.774 29.9682C106.008 30.5208 106.306 30.9672 106.667 31.3073C107.05 31.6261 107.475 31.8599 107.943 32.0087C108.41 32.1363 108.878 32.2 109.345 32.2C110.174 32.2 110.855 32.0725 111.386 31.8174C111.939 31.5411 112.374 31.2116 112.693 30.829C113.012 30.4464 113.235 30.0319 113.363 29.5856C113.49 29.1179 113.554 28.6928 113.554 28.3102V27.4493ZM119.645 13.5161H135.045V17.6291L125.639 31.7218H135.3V35.8348H119.837V31.7218L129.242 17.6291H119.645V13.5161Z" fill="#1F4ECF"/>
</svg>
