<svg width="209" height="29" viewBox="0 0 209 29" fill="none" xmlns="http://www.w3.org/2000/svg">
<g clip-path="url(#clip0_498_88)">
<path d="M32.4264 26.4368L26.9546 16.9048C26.8426 16.7124 26.6825 16.5529 26.4901 16.4423C26.2976 16.3316 26.0797 16.2738 25.8582 16.2745H23.7342C22.1176 16.2745 21.4556 15.1232 22.2722 13.7135L23.3353 11.8625C23.4462 11.6689 23.5045 11.4494 23.5045 11.2259C23.5045 11.0025 23.4462 10.783 23.3353 10.5893L17.8551 1.05731C17.0469 -0.352435 15.7248 -0.352435 14.9167 1.05731L9.6955 10.1628L20.5033 29H30.956C32.5725 29 33.2346 27.8465 32.4264 26.4368Z" fill="#F4F5F6"/>
<path d="M14.4686 22.2766C14.4089 22.1706 14.3229 22.0819 14.2189 22.0193C14.115 21.9566 13.9966 21.9223 13.8755 21.9195L12.7331 21.9007C11.8643 21.888 11.4988 21.2535 11.9228 20.4888L12.4783 19.4845C12.5368 19.3777 12.5666 19.2573 12.5647 19.1354C12.5629 19.0134 12.5295 18.8941 12.4679 18.7891L9.45003 13.5367L8.6042 12.066L0.344322 26.4365C-0.0587513 27.1425 -0.0963441 27.7811 0.170979 28.2456C0.436215 28.7099 1.00637 28.9977 1.8146 28.9977H18.3323L17.4864 27.5269L14.4686 22.2766Z" fill="#F4F5F6"/>
<path d="M61.8573 5.97397L58.9746 8.87397C57.5044 7.39497 55.4864 6.55397 53.382 6.55397C49.0291 6.55397 45.4833 10.121 45.4833 14.5C45.4833 18.879 49.0291 22.446 53.382 22.446C55.4864 22.446 57.5044 21.605 58.9746 20.126L61.8573 23.026C59.6088 25.288 56.5531 26.535 53.382 26.535C46.7805 26.535 41.4186 21.141 41.4186 14.5C41.4186 7.85897 46.7805 2.46497 53.382 2.46497C56.5531 2.46497 59.6088 3.71197 61.8573 5.97397ZM68.4826 10.73C69.5204 9.56997 70.9906 8.87397 73.0086 8.87397C73.7004 8.87397 75.0265 9.10597 75.0265 9.10597V13.079C75.0265 13.079 74.2482 12.934 73.0086 12.934C70.5006 12.934 68.4826 14.964 68.4826 17.487V26.1H64.4468V9.27997H68.4826V10.73ZM87.4216 16.211C87.1045 14.761 86.2109 13.688 85.0866 13.195C84.6542 12.992 84.1641 12.905 83.6741 12.905C82.6074 12.905 81.512 13.369 80.5607 14.326C80.0418 14.848 79.6959 15.515 79.4652 16.211H87.4216ZM77.7356 11.484V11.455C79.5229 9.65697 81.6273 8.87397 83.6452 8.87397C84.683 8.87397 85.7208 9.07697 86.6721 9.48297C89.3819 10.643 91.544 13.398 91.5728 17.4V19.169H79.4652C80.0706 21.083 81.8003 22.446 83.847 22.446C86.3838 22.446 88.6901 21.46 88.6901 21.46L90.4197 24.795C90.4197 24.795 88.5747 26.535 83.847 26.535C79.1193 26.535 75.3141 22.591 75.3141 17.69C75.3141 15.37 76.1789 13.137 77.7356 11.484ZM106.781 17.4C106.608 14.935 104.705 12.934 102.284 12.934C99.747 12.934 97.7291 15.109 97.7291 17.719C97.7291 20.329 99.747 22.504 102.284 22.504C104.705 22.504 106.608 20.503 106.781 18.038V17.4ZM106.781 10.788V2.89997H110.817V26.129H106.781V24.65C105.743 25.839 104.273 26.535 102.284 26.535C97.5561 26.535 93.7221 22.591 93.7221 17.719C93.7221 12.847 97.5561 8.90297 102.284 8.90297C104.273 8.90297 105.743 9.59897 106.781 10.788ZM117.702 9.27997V26.129H113.666V9.27997H117.702ZM115.684 2.87097C117.039 2.87097 118.134 3.97297 118.134 5.30697C118.134 6.66997 117.039 7.77197 115.684 7.77197C114.329 7.77197 113.262 6.66997 113.262 5.30697C113.262 3.97297 114.329 2.87097 115.684 2.87097ZM123 20.474V13.34H120.723V9.30897H123V5.27797L127.036 4.84297V9.30897H131.85V13.34H127.036V20.474C127.036 21.576 127.929 22.504 129.025 22.504C130.12 22.504 131.85 22.301 131.85 22.301L132.34 26.158C132.34 26.158 130.293 26.535 129.025 26.535C125.71 26.535 123 23.809 123 20.474ZM144.252 2.89997C147.509 3.18997 150.075 5.91597 150.075 9.27997C150.075 11.223 149.239 12.934 147.884 14.123C149.815 15.225 151.142 17.313 151.142 19.72C151.142 23.258 148.259 26.129 144.742 26.129H134.911V2.87097H144.252V2.89997ZM144.742 15.689H137.275V23.751H144.742C146.962 23.751 148.749 21.953 148.749 19.72C148.749 17.487 146.962 15.689 144.742 15.689ZM144.194 5.24897H137.275V13.311H144.194C146.183 13.079 147.74 11.339 147.74 9.27997C147.74 7.22097 146.183 5.48097 144.194 5.24897ZM161.825 11.252C158.366 11.252 155.569 14.152 155.569 17.719C155.569 21.286 158.366 24.157 161.825 24.157C165.284 24.157 168.081 21.286 168.081 17.719C168.081 14.152 165.284 11.252 161.825 11.252ZM161.825 8.87397C166.553 8.87397 170.387 12.847 170.387 17.719C170.387 22.591 166.553 26.535 161.825 26.535C157.097 26.535 153.263 22.591 153.263 17.719C153.263 12.847 157.097 8.87397 161.825 8.87397ZM181.109 11.252C177.65 11.252 174.854 14.152 174.854 17.719C174.854 21.286 177.65 24.157 181.109 24.157C184.569 24.157 187.365 21.286 187.365 17.719C187.365 14.152 184.569 11.252 181.109 11.252ZM181.109 8.87397C185.837 8.87397 189.671 12.847 189.671 17.719C189.671 22.591 185.837 26.535 181.109 26.535C176.382 26.535 172.547 22.591 172.547 17.719C172.547 12.847 176.382 8.87397 181.109 8.87397ZM194.338 17.139L201.574 9.27997H204.774L198.403 16.24L206.186 26.129H203.131L196.76 18.009L194.338 20.619V26.129H191.974V2.87097H194.338V17.139Z" fill="#F4F5F6"/>
</g>
<defs>
<clipPath id="clip0_498_88">
<rect width="209" height="29" fill="white"/>
</clipPath>
</defs>
</svg>
