<svg width="36" height="36" viewBox="0 0 36 36" fill="none" xmlns="http://www.w3.org/2000/svg">
<path d="M29.9351 5.18669C28.313 3.54854 26.3832 2.24703 24.2566 1.35694C22.13 0.466854 19.8484 0.00572711 17.5431 5.30099e-05C15.2377 -0.00562109 12.9539 0.444269 10.8229 1.32388C8.69196 2.20349 6.75578 3.49548 5.12563 5.12563C3.49548 6.75578 2.20349 8.69196 1.32388 10.8229C0.444269 12.9539 -0.00562109 15.2377 5.30099e-05 17.5431C0.00572711 19.8484 0.466854 22.13 1.35694 24.2566C2.24703 26.3832 3.54854 28.313 5.18669 29.9351C6.8088 31.5733 8.7386 32.8748 10.8652 33.7649C12.9918 34.655 15.2734 35.1161 17.5788 35.1218C19.8841 35.1274 22.1679 34.6776 24.2989 33.7979C26.4299 32.9183 28.366 31.6263 29.9962 29.9962C31.6263 28.366 32.9183 26.4299 33.7979 24.2989C34.6776 22.1679 35.1274 19.8841 35.1218 17.5788C35.1161 15.2734 34.655 12.9918 33.7649 10.8652C32.8748 8.7386 31.5733 6.8088 29.9351 5.18669ZM11.9359 13.8109C12.3068 13.8109 12.6693 13.9209 12.9776 14.1269C13.2859 14.3329 13.5263 14.6258 13.6682 14.9684C13.8101 15.311 13.8472 15.688 13.7749 16.0517C13.7025 16.4154 13.524 16.7495 13.2617 17.0117C12.9995 17.274 12.6654 17.4525 12.3017 17.5249C11.938 17.5972 11.561 17.5601 11.2184 17.4182C10.8758 17.2763 10.5829 17.0359 10.3769 16.7276C10.1709 16.4193 10.0609 16.0568 10.0609 15.6859C10.0603 15.4395 10.1084 15.1954 10.2024 14.9677C10.2964 14.7399 10.4345 14.5329 10.6087 14.3587C10.7829 14.1845 10.9899 14.0464 11.2177 13.9524C11.4454 13.8584 11.6895 13.8103 11.9359 13.8109ZM25.0351 22.1054C24.0976 25.2539 21.1133 27.5609 17.5648 27.5609C14.0164 27.5609 11.032 25.2539 10.0867 22.1054C10.0603 22.0117 10.0561 21.913 10.0746 21.8174C10.093 21.7217 10.1336 21.6317 10.193 21.5545C10.2524 21.4774 10.3291 21.4151 10.4168 21.3728C10.5046 21.3305 10.601 21.3093 10.6984 21.3109H24.4242C24.5215 21.3095 24.6179 21.3307 24.7055 21.3731C24.7932 21.4155 24.8697 21.4777 24.929 21.5549C24.9884 21.632 25.0289 21.722 25.0473 21.8176C25.0657 21.9132 25.0616 22.0118 25.0351 22.1054ZM23.1859 17.5609C22.8151 17.5609 22.4526 17.4509 22.1442 17.2449C21.8359 17.0389 21.5956 16.7461 21.4536 16.4034C21.3117 16.0608 21.2746 15.6838 21.3469 15.3201C21.4193 14.9564 21.5979 14.6223 21.8601 14.3601C22.1223 14.0979 22.4564 13.9193 22.8201 13.8469C23.1838 13.7746 23.5608 13.8117 23.9034 13.9536C24.2461 14.0956 24.5389 14.3359 24.7449 14.6442C24.9509 14.9526 25.0609 15.3151 25.0609 15.6859C25.0615 15.9323 25.0135 16.1764 24.9194 16.4042C24.8254 16.6319 24.6874 16.8389 24.5131 17.0131C24.3389 17.1873 24.1319 17.3254 23.9042 17.4194C23.6764 17.5135 23.4323 17.5615 23.1859 17.5609Z" fill="white"/>
</svg>
