<svg width="26" height="26" viewBox="0 0 26 26" fill="none" xmlns="http://www.w3.org/2000/svg">
<path d="M24.4573 0H1.06349C0.476216 0 0.000137329 0.476079 0.000137329 1.06335V24.4571C0.000137329 25.0444 0.476216 25.5205 1.06349 25.5205H13.6314V15.6376H10.3056V11.7861H13.6314V8.94566C13.6314 5.64939 15.6447 3.85451 18.5852 3.85451C19.9937 3.85451 21.2043 3.95937 21.557 4.00625V7.45104L19.5177 7.45197C17.9184 7.45197 17.6088 8.21189 17.6088 9.32702V11.7861H21.4228L20.9262 15.6376H17.6088V25.5205H24.4573C25.0445 25.5205 25.5206 25.0444 25.5206 24.4571V1.06335C25.5206 0.476079 25.0445 0 24.4573 0Z" fill="#7D818D"/>
</svg>
