<svg width="38" height="38" viewBox="0 0 38 38" fill="none" xmlns="http://www.w3.org/2000/svg">
<path d="M12.5 18.75C12.5 20.3333 12.5708 21.8683 12.7025 23.3333H24.7975C24.9292 21.8683 25 20.3333 25 18.75C25 17.1667 24.9292 15.6317 24.7967 14.1667H12.7042C12.5708 15.6317 12.5 17.1667 12.5 18.75ZM10.1942 14.1667C10.0637 15.691 9.99896 17.2201 10 18.75C10 20.3217 10.0667 21.8558 10.1933 23.3333H0.564167C0.195833 21.8667 0 20.3308 0 18.75C0 17.1692 0.195833 15.6333 0.564167 14.1667H10.1942ZM12.9992 11.6667H24.5C24.13 9.14417 23.57 6.895 22.8758 5.0475C22.2267 3.32 21.485 2.0075 20.7258 1.15083C19.965 0.290833 19.2933 0 18.75 0C18.2067 0 17.535 0.291667 16.7733 1.15C16.0142 2.00833 15.2725 3.32 14.6233 5.0475C13.9292 6.895 13.3692 9.14417 12.9983 11.6667M27.3058 14.1667C27.4333 15.6442 27.5 17.1783 27.5 18.75C27.5 20.3217 27.4333 21.8558 27.3067 23.3333H36.9358C37.3042 21.8667 37.5 20.3308 37.5 18.75C37.5 17.1692 37.3042 15.6333 36.9358 14.1667H27.3058ZM36.1167 11.6667H27.0258C26.6342 8.84333 26.0142 6.29167 25.2167 4.16833C24.7075 2.81333 24.1142 1.6 23.4383 0.590833C29.205 2.07583 33.8967 6.235 36.115 11.6667M10.4733 11.6667H1.38417C3.60167 6.235 8.29417 2.07583 14.0608 0.591667C13.3858 1.6 12.7917 2.81333 12.2825 4.16833C11.485 6.29167 10.8658 8.84333 10.4742 11.6667M10.4717 25.8333H1.38417C3.60083 31.2625 8.28917 35.42 14.0508 36.9067C13.3758 35.8983 12.7842 34.685 12.2758 33.3317C11.48 31.2067 10.8617 28.6567 10.4717 25.8333ZM22.8833 32.4533C23.575 30.6058 24.1333 28.3567 24.5033 25.8333H12.9967C13.3658 28.3567 13.9242 30.6058 14.6167 32.4533C15.265 34.1808 16.0058 35.4925 16.7667 36.3492C17.5267 37.2075 18.2 37.5 18.75 37.5C19.3 37.5 19.9733 37.2075 20.7333 36.3492C21.4942 35.4925 22.235 34.1808 22.8833 32.4533ZM25.2242 33.3308C26.02 31.2075 26.6383 28.6558 27.0283 25.8333H36.1158C33.8992 31.2625 29.2108 35.42 23.4492 36.9067C24.1242 35.8983 24.7158 34.6842 25.2242 33.3308Z" fill="white"/>
</svg>
