<svg width="26" height="26" viewBox="0 0 26 26" fill="none" xmlns="http://www.w3.org/2000/svg">
<path fill-rule="evenodd" clip-rule="evenodd" d="M7.4993 0.0765614C8.86039 0.0148869 9.29477 0 12.7602 0C16.2257 0 16.6601 0.0148869 18.0212 0.0765614C20.0958 0.1712 21.9168 0.679483 23.3789 2.14159C24.8415 3.60423 25.3493 5.42576 25.4439 7.4993C25.5056 8.86039 25.5205 9.29477 25.5205 12.7602C25.5205 16.2257 25.5056 16.6601 25.4439 18.0212C25.3493 20.0958 24.841 21.9168 23.3789 23.3789C21.9162 24.8415 20.0942 25.3493 18.0212 25.4439C16.6601 25.5056 16.2257 25.5205 12.7602 25.5205C9.29477 25.5205 8.86039 25.5056 7.4993 25.4439C5.4247 25.3493 3.6037 24.841 2.14159 23.3789C0.678951 21.9162 0.1712 20.0947 0.0765614 18.0212C0.0148869 16.6601 0 16.2257 0 12.7602C0 9.29477 0.0148869 8.86039 0.0765614 7.4993C0.1712 5.4247 0.679483 3.6037 2.14159 2.14159C3.60423 0.678951 5.42576 0.1712 7.4993 0.0765614ZM17.9165 2.37343C16.5709 2.31175 16.1673 2.29899 12.7603 2.29899C9.35336 2.29899 8.94982 2.31228 7.60415 2.37343C6.15214 2.43989 4.80434 2.73071 3.76757 3.76748C2.7308 4.80425 2.43997 6.15205 2.37351 7.60406C2.31184 8.94973 2.29908 9.35328 2.29908 12.7603C2.29908 16.1672 2.31237 16.5708 2.37351 17.9165C2.43997 19.3685 2.7308 20.7163 3.76757 21.753C4.80434 22.7898 6.15214 23.0806 7.60415 23.1471C8.94929 23.2088 9.35283 23.2215 12.7603 23.2215C16.1679 23.2215 16.5714 23.2082 17.9165 23.1471C19.3686 23.0806 20.7164 22.7898 21.7531 21.753C22.7899 20.7163 23.0807 19.3685 23.1472 17.9165C23.2089 16.5708 23.2216 16.1672 23.2216 12.7603C23.2216 9.35328 23.2083 8.94973 23.1472 7.60406C23.0807 6.15205 22.7899 4.80425 21.7531 3.76748C20.7164 2.73071 19.3686 2.43989 17.9165 2.37343Z" fill="#7D818D"/>
<path fill-rule="evenodd" clip-rule="evenodd" d="M6.96033 13.3401C6.96033 9.81662 9.81647 6.95996 13.3404 6.95996C16.8644 6.95996 19.7206 9.8161 19.7206 13.3401C19.7206 16.8641 16.8644 19.7202 13.3404 19.7202C9.81647 19.7202 6.96033 16.8635 6.96033 13.3401ZM9.19866 13.3401C9.19866 15.6273 11.0531 17.4817 13.3402 17.4817C15.6274 17.4817 17.4818 15.6273 17.4818 13.3401C17.4818 11.0529 15.6274 9.1985 13.3402 9.1985C11.0531 9.1985 9.19866 11.0529 9.19866 13.3401Z" fill="#7D818D"/>
<circle cx="19.1404" cy="6.38066" r="1.74003" fill="#7D818D"/>
</svg>
