<svg width="26" height="26" viewBox="0 0 26 26" fill="none" xmlns="http://www.w3.org/2000/svg">
<path fill-rule="evenodd" clip-rule="evenodd" d="M1.06335 0H24.4571C25.042 0 25.5205 0.478509 25.5205 1.06335V24.4571C25.5205 25.042 25.042 25.5205 24.4571 25.5205H1.06335C0.478509 25.5205 0 25.042 0 24.4571V1.06335C0 0.478509 0.478509 0 1.06335 0ZM3.77498 21.7455H7.54989V9.5701H3.77498V21.7455ZM5.68909 7.9222C4.46623 7.9222 3.50922 6.96518 3.50922 5.74233C3.50922 4.51947 4.46623 3.56245 5.68909 3.56245C6.91194 3.56245 7.86896 4.51947 7.86896 5.74233C7.86896 6.91201 6.91194 7.9222 5.68909 7.9222ZM17.9708 21.7455H21.6925V15.0463C21.6925 11.7499 21.0013 9.25106 17.1733 9.25106C15.3656 9.25106 14.0895 10.2612 13.611 11.2183H13.5579V9.57006H9.94246V21.7455H13.7174V15.7375C13.7174 14.1425 14.0364 12.6006 16.0036 12.6006C17.9708 12.6006 17.9708 14.4083 17.9708 15.8438V21.7455Z" fill="#7D818D"/>
</svg>
