<svg width="24" height="24" viewBox="0 0 24 24" fill="none" xmlns="http://www.w3.org/2000/svg">
<path d="M12.75 15C13.3467 15 13.919 15.2371 14.341 15.659C14.7629 16.081 15 16.6533 15 17.25V18C15 20.9565 12.21 24 7.5 24C2.79 24 0 20.9565 0 18V17.25C0 16.6533 0.237053 16.081 0.65901 15.659C1.08097 15.2371 1.65326 15 2.25 15H12.75Z" fill="#1F4ECF"/>
<path d="M12.75 15C13.3467 15 13.919 15.2371 14.341 15.659C14.7629 16.081 15 16.6533 15 17.25V18C15 20.9565 12.21 24 7.5 24C2.79 24 0 20.9565 0 18V17.25C0 16.6533 0.237053 16.081 0.65901 15.659C1.08097 15.2371 1.65326 15 2.25 15H12.75Z" fill="url(#paint0_linear_617_1821)"/>
<path d="M7.5 5.25C8.59402 5.25 9.64323 5.6846 10.4168 6.45818C11.1904 7.23177 11.625 8.28098 11.625 9.375C11.625 10.469 11.1904 11.5182 10.4168 12.2918C9.64323 13.0654 8.59402 13.5 7.5 13.5C6.40598 13.5 5.35677 13.0654 4.58318 12.2918C3.8096 11.5182 3.375 10.469 3.375 9.375C3.375 8.28098 3.8096 7.23177 4.58318 6.45818C5.35677 5.6846 6.40598 5.25 7.5 5.25Z" fill="#1F4ECF"/>
<path fill-rule="evenodd" clip-rule="evenodd" d="M15 0C14.2044 0 13.4413 0.31607 12.8787 0.87868C12.3161 1.44129 12 2.20435 12 3V6C12 6.79565 12.3161 7.55871 12.8787 8.12132C13.4413 8.68393 14.2044 9 15 9V10.8405C15 11.9535 16.41 12.438 17.094 11.559L19.083 9H21C21.7956 9 22.5587 8.68393 23.1213 8.12132C23.6839 7.55871 24 6.79565 24 6V3C24 2.20435 23.6839 1.44129 23.1213 0.87868C22.5587 0.31607 21.7956 0 21 0H15Z" fill="url(#paint1_radial_617_1821)"/>
<defs>
<linearGradient id="paint0_linear_617_1821" x1="7.5" y1="13.929" x2="12.246" y2="28.7085" gradientUnits="userSpaceOnUse">
<stop stop-color="#1167E8"/>
<stop offset="1" stop-color="#1F4ECF"/>
</linearGradient>
<radialGradient id="paint1_radial_617_1821" cx="0" cy="0" r="1" gradientUnits="userSpaceOnUse" gradientTransform="translate(9.231 -3.696) rotate(49.594) scale(22.2065 39.9949)">
<stop stop-color="#D9D9D9"/>
<stop offset="0.535" stop-color="#959595"/>
<stop offset="1" stop-color="#99A1AF"/>
</radialGradient>
</defs>
</svg>
