<svg width="110" height="194" viewBox="0 0 110 194" fill="none" xmlns="http://www.w3.org/2000/svg">
<g filter="url(#filter0_di_496_2036)">
<path d="M110.484 -15.7139C112.199 -13.9993 112.199 -11.2195 110.484 -9.50492L63.1763 37.8022C62.0785 38.8999 61.4618 40.3887 61.4618 41.9412L61.4618 133.089C61.4617 137.358 59.7656 141.452 56.747 144.471L29.7767 171.441C28.2366 172.981 27.8045 175.267 27.8046 177.445C27.8046 183.911 22.563 189.152 16.0976 189.152C9.63208 189.152 4.39054 183.911 4.39054 177.445C4.39077 170.98 9.63222 165.739 16.0976 165.739C16.5808 165.739 17.0571 165.769 17.525 165.825C20.0948 166.138 22.9129 165.887 24.7435 164.056L50.539 138.263C51.911 136.891 52.6814 135.029 52.6815 133.089L52.6815 47.9423C52.6815 44.7095 50.0609 42.0889 46.8281 42.0889L31.4547 42.0889C28.9264 42.0889 26.7898 43.8228 25.1998 45.7885C23.0546 48.4407 19.7748 50.1367 16.0975 50.1367C9.63206 50.1367 4.39051 44.8952 4.39051 38.4297C4.39074 31.9644 9.6322 26.7236 16.0975 26.7236C19.4149 26.7237 22.4094 28.1037 24.5392 30.3209C26.09 31.9353 28.0462 33.3086 30.2847 33.3086L52.8283 33.3086C54.3807 33.3086 55.8695 32.6919 56.9672 31.5942L104.275 -15.7139C105.99 -17.4285 108.77 -17.4285 110.484 -15.7139Z" fill="#E6F0FF" fill-opacity="0.25" shape-rendering="crispEdges"/>
</g>
<g opacity="0.6">
<mask id="path-2-inside-1_496_2036" fill="white">
<path d="M8.78113 38.6102C8.78113 34.5693 12.0569 31.2935 16.0979 31.2935C20.1388 31.2935 23.4146 34.5693 23.4146 38.6102C23.4146 42.6511 20.1388 45.927 16.0979 45.927C12.057 45.927 8.78113 42.6511 8.78113 38.6102Z"/>
</mask>
<path d="M8.78113 38.6102C8.78113 34.5693 12.0569 31.2935 16.0979 31.2935C20.1388 31.2935 23.4146 34.5693 23.4146 38.6102C23.4146 42.6511 20.1388 45.927 16.0979 45.927C12.057 45.927 8.78113 42.6511 8.78113 38.6102Z" fill="#1F4ECF"/>
<path d="M8.78113 37.1469C8.78113 33.1059 12.0569 29.8301 16.0979 29.8301C20.1388 29.8301 23.4146 33.1059 23.4146 37.1469L23.4146 38.6102C23.4146 35.3775 20.1388 32.7568 16.0979 32.7568C12.0569 32.7568 8.78113 35.3775 8.78113 38.6102L8.78113 37.1469ZM23.4146 40.0736C23.4146 44.1145 20.1388 47.3903 16.0979 47.3903C12.057 47.3903 8.78113 44.1145 8.78113 40.0736L8.78113 38.6102C8.78113 41.843 12.057 44.4636 16.0979 44.4636C20.1388 44.4636 23.4146 41.843 23.4146 38.6102L23.4146 40.0736ZM8.78113 45.927L8.78113 31.2935L8.78113 45.927ZM23.4146 31.2935L23.4146 45.927L23.4146 31.2935Z" fill="white" fill-opacity="0.15" mask="url(#path-2-inside-1_496_2036)"/>
</g>
<g filter="url(#filter1_f_496_2036)">
<mask id="path-4-inside-2_496_2036" fill="white">
<path d="M5.8534 177.631C5.85339 171.973 10.4395 167.387 16.0968 167.387C21.7541 167.387 26.3403 171.973 26.3403 177.631C26.3403 183.288 21.7542 187.874 16.0968 187.874C10.4395 187.874 5.8534 183.288 5.8534 177.631Z"/>
</mask>
<path d="M5.8534 177.631C5.85339 171.973 10.4395 167.387 16.0968 167.387C21.7541 167.387 26.3403 171.973 26.3403 177.631C26.3403 183.288 21.7542 187.874 16.0968 187.874C10.4395 187.874 5.8534 183.288 5.8534 177.631Z" fill="#1F4ECF" fill-opacity="0.3"/>
<path d="M5.8534 177.631C5.85339 171.973 10.4395 167.387 16.0968 167.387C21.7541 167.387 26.3403 171.973 26.3403 177.631C26.3403 183.288 21.7542 187.874 16.0968 187.874C10.4395 187.874 5.8534 183.288 5.8534 177.631Z" fill="url(#paint0_radial_496_2036)" style="mix-blend-mode:overlay"/>
<path d="M5.8534 177.631C5.85339 171.973 10.4395 167.387 16.0968 167.387C21.7541 167.387 26.3403 171.973 26.3403 177.631C26.3403 183.288 21.7542 187.874 16.0968 187.874C10.4395 187.874 5.8534 183.288 5.8534 177.631Z" fill="url(#paint1_radial_496_2036)" fill-opacity="0.2"/>
<path d="M5.8534 176.167C5.85339 170.51 10.4395 165.924 16.0968 165.924C21.7541 165.924 26.3403 170.51 26.3403 176.167L26.3403 177.631C26.3403 172.782 21.7541 168.851 16.0968 168.851L16.0968 168.851C10.4395 168.851 5.85339 172.782 5.8534 177.631L5.8534 176.167ZM26.3403 179.094C26.3403 184.751 21.7542 189.337 16.0968 189.337C10.4395 189.337 5.8534 184.751 5.8534 179.094L5.8534 177.631C5.8534 182.48 10.4395 186.411 16.0968 186.411L16.0968 186.411C21.7542 186.411 26.3403 182.48 26.3403 177.631L26.3403 179.094ZM5.8534 187.874L5.85339 167.387L5.8534 187.874ZM26.3403 167.387L26.3403 187.874L26.3403 167.387Z" fill="white" fill-opacity="0.15" mask="url(#path-4-inside-2_496_2036)"/>
</g>
<mask id="path-6-inside-3_496_2036" fill="white">
<path d="M8.77918 177.634C8.77918 173.593 12.055 170.317 16.0959 170.317C20.1369 170.317 23.4127 173.593 23.4127 177.634C23.4127 181.675 20.1369 184.95 16.0959 184.95C12.055 184.95 8.77918 181.675 8.77918 177.634Z"/>
</mask>
<path d="M8.77918 177.634C8.77918 173.593 12.055 170.317 16.0959 170.317C20.1369 170.317 23.4127 173.593 23.4127 177.634C23.4127 181.675 20.1369 184.95 16.0959 184.95C12.055 184.95 8.77918 181.675 8.77918 177.634Z" fill="#1F4ECF"/>
<path d="M8.77918 176.17C8.77918 172.129 12.055 168.854 16.0959 168.854C20.1369 168.854 23.4127 172.129 23.4127 176.17L23.4127 177.634C23.4127 174.401 20.1369 171.78 16.0959 171.78C12.055 171.78 8.77918 174.401 8.77918 177.634L8.77918 176.17ZM23.4127 179.097C23.4127 183.138 20.1369 186.414 16.0959 186.414C12.055 186.414 8.77918 183.138 8.77918 179.097L8.77918 177.634C8.77918 180.866 12.055 183.487 16.0959 183.487C20.1369 183.487 23.4127 180.866 23.4127 177.634L23.4127 179.097ZM8.77918 184.95L8.77917 170.317L8.77918 184.95ZM23.4127 170.317L23.4127 184.95L23.4127 170.317Z" fill="white" fill-opacity="0.15" mask="url(#path-6-inside-3_496_2036)"/>
<g filter="url(#filter2_f_496_2036)">
<path d="M52.6815 51.7773C52.6815 49.3527 54.647 47.3872 57.0716 47.3872C59.4961 47.3872 61.4616 49.3527 61.4616 51.7773L61.4616 88.361C61.4616 90.7856 59.4961 92.7511 57.0716 92.7511C54.647 92.7511 52.6815 90.7856 52.6815 88.361L52.6815 51.7773Z" fill="#1F4ECF" fill-opacity="0.2"/>
</g>
<mask id="path-9-inside-4_496_2036" fill="white">
<path d="M54.1444 56.1655C54.1444 54.5491 55.4547 53.2388 57.0711 53.2388C58.6875 53.2388 59.9978 54.5491 59.9978 56.1655L59.9978 79.5791C59.9978 81.1954 58.6875 82.5058 57.0711 82.5058C55.4547 82.5058 54.1444 81.1954 54.1444 79.5791L54.1444 56.1655Z"/>
</mask>
<path d="M54.1444 56.1655C54.1444 54.5491 55.4547 53.2388 57.0711 53.2388C58.6875 53.2388 59.9978 54.5491 59.9978 56.1655L59.9978 79.5791C59.9978 81.1954 58.6875 82.5058 57.0711 82.5058C55.4547 82.5058 54.1444 81.1954 54.1444 79.5791L54.1444 56.1655Z" fill="#1F4ECF"/>
<path d="M54.1444 56.1655C54.1444 54.5491 55.4547 53.2388 57.0711 53.2388C58.6875 53.2388 59.9978 54.5491 59.9978 56.1655L59.9978 79.5791C59.9978 81.1954 58.6875 82.5058 57.0711 82.5058C55.4547 82.5058 54.1444 81.1954 54.1444 79.5791L54.1444 56.1655Z" fill="url(#paint2_radial_496_2036)" style="mix-blend-mode:overlay"/>
<path d="M54.1444 56.1655C54.1444 54.5491 55.4547 53.2388 57.0711 53.2388C58.6875 53.2388 59.9978 54.5491 59.9978 56.1655L59.9978 79.5791C59.9978 81.1954 58.6875 82.5058 57.0711 82.5058C55.4547 82.5058 54.1444 81.1954 54.1444 79.5791L54.1444 56.1655Z" fill="url(#paint3_radial_496_2036)" fill-opacity="0.2"/>
<path d="M54.1444 54.7021C54.1444 53.0857 55.4547 51.7754 57.0711 51.7754C58.6875 51.7754 59.9978 53.0857 59.9978 54.7021L59.9978 56.1655C59.9978 55.3573 58.6875 54.7021 57.0711 54.7021C55.4547 54.7021 54.1444 55.3573 54.1444 56.1655L54.1444 54.7021ZM59.9978 81.0424C59.9978 82.6588 58.6875 83.9691 57.0711 83.9691C55.4547 83.9691 54.1444 82.6588 54.1444 81.0424L54.1444 79.5791C54.1444 80.3873 55.4547 81.0424 57.0711 81.0424C58.6875 81.0424 59.9978 80.3873 59.9978 79.5791L59.9978 81.0424ZM54.1444 82.5058L54.1444 53.2388L54.1444 82.5058ZM59.9978 53.2388L59.9978 82.5058L59.9978 53.2388Z" fill="white" fill-opacity="0.15" mask="url(#path-9-inside-4_496_2036)"/>
<defs>
<filter id="filter0_di_496_2036" x="4.3905" y="-17" width="110.306" height="209.079" filterUnits="userSpaceOnUse" color-interpolation-filters="sRGB">
<feFlood flood-opacity="0" result="BackgroundImageFix"/>
<feColorMatrix in="SourceAlpha" type="matrix" values="0 0 0 0 0 0 0 0 0 0 0 0 0 0 0 0 0 0 127 0" result="hardAlpha"/>
<feOffset dx="1.46335" dy="1.46335"/>
<feGaussianBlur stdDeviation="0.731675"/>
<feComposite in2="hardAlpha" operator="out"/>
<feColorMatrix type="matrix" values="0 0 0 0 1 0 0 0 0 1 0 0 0 0 1 0 0 0 0.08 0"/>
<feBlend mode="normal" in2="BackgroundImageFix" result="effect1_dropShadow_496_2036"/>
<feBlend mode="normal" in="SourceGraphic" in2="effect1_dropShadow_496_2036" result="shape"/>
<feColorMatrix in="SourceAlpha" type="matrix" values="0 0 0 0 0 0 0 0 0 0 0 0 0 0 0 0 0 0 127 0" result="hardAlpha"/>
<feOffset dx="1.46335"/>
<feGaussianBlur stdDeviation="2.19503"/>
<feComposite in2="hardAlpha" operator="arithmetic" k2="-1" k3="1"/>
<feColorMatrix type="matrix" values="0 0 0 0 0.813646 0 0 0 0 0.823008 0 0 0 0 0.891667 0 0 0 0.6 0"/>
<feBlend mode="normal" in2="shape" result="effect2_innerShadow_496_2036"/>
</filter>
<filter id="filter1_f_496_2036" x="-7.62939e-06" y="161.534" width="32.1937" height="32.1936" filterUnits="userSpaceOnUse" color-interpolation-filters="sRGB">
<feFlood flood-opacity="0" result="BackgroundImageFix"/>
<feBlend mode="normal" in="SourceGraphic" in2="BackgroundImageFix" result="shape"/>
<feGaussianBlur stdDeviation="2.9267" result="effect1_foregroundBlur_496_2036"/>
</filter>
<filter id="filter2_f_496_2036" x="46.8281" y="41.5338" width="20.487" height="57.0706" filterUnits="userSpaceOnUse" color-interpolation-filters="sRGB">
<feFlood flood-opacity="0" result="BackgroundImageFix"/>
<feBlend mode="normal" in="SourceGraphic" in2="BackgroundImageFix" result="shape"/>
<feGaussianBlur stdDeviation="2.9267" result="effect1_foregroundBlur_496_2036"/>
</filter>
<radialGradient id="paint0_radial_496_2036" cx="0" cy="0" r="1" gradientUnits="userSpaceOnUse" gradientTransform="translate(16.0968 183.42) rotate(90) scale(17.3693 132.639)">
<stop stop-color="white"/>
<stop offset="1" stop-color="white" stop-opacity="0"/>
</radialGradient>
<radialGradient id="paint1_radial_496_2036" cx="0" cy="0" r="1" gradientUnits="userSpaceOnUse" gradientTransform="translate(16.0968 183.866) rotate(90) scale(6.23514 23.9014)">
<stop stop-color="white"/>
<stop offset="1" stop-color="white" stop-opacity="0"/>
</radialGradient>
<radialGradient id="paint2_radial_496_2036" cx="0" cy="0" r="1" gradientUnits="userSpaceOnUse" gradientTransform="translate(57.0711 76.1434) rotate(90) scale(24.8133 37.8969)">
<stop stop-color="white"/>
<stop offset="1" stop-color="white" stop-opacity="0"/>
</radialGradient>
<radialGradient id="paint3_radial_496_2036" cx="0" cy="0" r="1" gradientUnits="userSpaceOnUse" gradientTransform="translate(57.0711 76.7796) rotate(90) scale(8.90735 6.82897)">
<stop stop-color="white"/>
<stop offset="1" stop-color="white" stop-opacity="0"/>
</radialGradient>
</defs>
</svg>
