<svg width="142" height="35" viewBox="0 0 142 35" fill="none" xmlns="http://www.w3.org/2000/svg">
<path d="M30.1924 28.7007L15.094 34.9553L0 28.7007L15.094 22.4503L30.1924 28.7007Z" fill="#427A8C"/>
<path d="M15.094 15.0948V34.9626L0.00452603 28.6949L0 8.82715L15.094 15.0948Z" fill="#0E485B"/>
<path d="M18.8911 19.8678V0L33.9851 6.26766V26.1355L18.8911 19.8678Z" fill="#F69362"/>
<path d="M3.79675 6.25468L18.8907 0L33.9892 6.25468L18.8907 12.505L3.79675 6.25468Z" fill="#D04A27"/>
<path d="M66.3383 22.856V28.7583H45.6426V24.1024L56.0285 12.0876H45.9278V6.2235H65.92V10.8365L55.5341 22.8512H66.3383V22.856ZM74.3285 27.6409C72.3987 26.6428 70.8872 25.258 69.7987 23.4816C68.7102 21.7099 68.1636 19.6995 68.1636 17.4503C68.1636 15.2011 68.7102 13.2385 69.7987 11.462C70.8872 9.69039 72.394 8.31032 74.3095 7.3266C76.2251 6.34288 78.4021 5.85102 80.8263 5.85102C83.2504 5.85102 85.4322 6.34288 87.3668 7.3266C89.2966 8.31032 90.8034 9.68084 91.8776 11.4429C92.9519 13.205 93.4937 15.2059 93.4937 17.4503C93.4937 19.6947 92.9566 21.7051 91.8776 23.4816C90.8034 25.258 89.2966 26.6428 87.3668 27.6409C85.4369 28.6389 83.2552 29.1356 80.8263 29.1356C78.3973 29.1356 76.2584 28.6389 74.3285 27.6409ZM84.2201 21.4234C85.1042 20.4683 85.5463 19.1456 85.5463 17.4503C85.5463 15.7551 85.1042 14.4848 84.2201 13.5441C83.336 12.6033 82.2047 12.1306 80.8263 12.1306C79.4478 12.1306 78.3165 12.6033 77.4324 13.5441C76.5483 14.4848 76.1063 15.7885 76.1063 17.4503C76.1063 19.1121 76.5483 20.4635 77.4324 21.4234C78.3165 22.3785 79.4478 22.856 80.8263 22.856C82.8939 22.856 83.336 22.3785 84.2201 21.4234ZM107.749 6.61985C109.032 6.10889 110.501 5.85102 112.155 5.85102V12.9615C111.437 12.8803 110.843 12.8373 110.377 12.8373C108.695 12.8373 107.378 13.2958 106.423 14.2079C105.472 15.1247 104.997 16.5239 104.997 18.4054V28.7583H97.1347V6.2235H104.626V8.92634C105.424 7.89964 106.465 7.13081 107.749 6.61985ZM119.936 27.6409C118.006 26.6428 116.495 25.258 115.406 23.4816C114.318 21.7099 113.771 19.6995 113.771 17.4503C113.771 15.2011 114.318 13.2385 115.406 11.462C116.495 9.69039 118.002 8.31032 119.917 7.3266C121.833 6.34288 124.01 5.85102 126.434 5.85102C128.858 5.85102 131.04 6.34288 132.974 7.3266C134.904 8.31032 136.411 9.68084 137.485 11.4429C138.559 13.205 139.101 15.2059 139.101 17.4503C139.101 19.6947 138.564 21.7051 137.485 23.4816C136.411 25.258 134.904 26.6428 132.974 27.6409C131.045 28.6389 128.863 29.1356 126.434 29.1356C124.005 29.1356 121.866 28.6389 119.936 27.6409ZM129.828 21.4234C130.712 20.4683 131.154 19.1456 131.154 17.4503C131.154 15.7551 130.712 14.4848 129.828 13.5441C128.944 12.6033 127.812 12.1306 126.434 12.1306C125.055 12.1306 123.924 12.6033 123.04 13.5441C122.156 14.4848 121.714 15.7885 121.714 17.4503C121.714 19.1121 122.156 20.4635 123.04 21.4234C123.924 22.3785 125.055 22.856 126.434 22.856C128.502 22.856 128.944 22.3785 129.828 21.4234ZM141.207 7.85667C141.207 9.00752 140.309 9.91006 139.139 9.91006C137.97 9.91006 137.057 9.00752 137.057 7.85667C137.057 6.70581 137.98 5.82715 139.139 5.82715C140.299 5.82715 141.207 6.72969 141.207 7.85667ZM137.571 7.85667C137.571 8.7592 138.236 9.48028 139.149 9.48028C140.061 9.48028 140.689 8.76398 140.689 7.87099C140.689 6.978 140.038 6.23783 139.135 6.23783C138.231 6.23783 137.571 6.96845 137.571 7.86144V7.85667ZM138.816 8.92157H138.35V6.89205C138.536 6.85385 138.792 6.82997 139.125 6.82997C139.505 6.82997 139.681 6.89205 139.829 6.978C139.938 7.06396 140.023 7.22632 140.023 7.42211C140.023 7.64655 139.852 7.81846 139.605 7.89487V7.91874C139.8 7.99515 139.914 8.14318 139.976 8.41538C140.038 8.72578 140.076 8.84994 140.123 8.92157H139.619C139.558 8.84516 139.52 8.6637 139.458 8.42493C139.42 8.20049 139.296 8.10498 139.04 8.10498H138.816V8.92157ZM138.83 7.77071H139.054C139.31 7.77071 139.524 7.68475 139.524 7.47464C139.524 7.2884 139.387 7.16424 139.092 7.16424C138.968 7.16424 138.883 7.17857 138.835 7.18812V7.77071H138.83Z" fill="#0E485B"/>
</svg>
